<?xml version="1.0" standalone="no"?>
<!DOCTYPE svg PUBLIC "-//W3C//DTD SVG 20010904//EN"
 "http://www.w3.org/TR/2001/REC-SVG-20010904/DTD/svg10.dtd">
<svg version="1.0" xmlns="http://www.w3.org/2000/svg"
 width="271.000000pt" height="295.000000pt" viewBox="0 0 271.000000 295.000000"
 preserveAspectRatio="xMidYMid meet">

<g transform="translate(0.000000,295.000000) scale(0.100000,-0.100000)"
fill="#000000" stroke="none">
<path d="M1560 2683 c-8 -3 -27 -14 -42 -24 -30 -22 -64 -25 -72 -6 -5 10 -7
10 -12 0 -3 -8 -27 -13 -62 -13 -31 0 -75 -5 -97 -11 -22 -6 -76 -15 -119 -20
-43 -6 -95 -18 -115 -28 -20 -10 -50 -22 -68 -26 -18 -3 -73 -31 -124 -61 -51
-31 -97 -53 -106 -50 -8 3 -26 -3 -39 -13 -14 -11 -38 -23 -54 -26 -27 -6 -30
-11 -30 -45 0 -22 5 -40 13 -43 10 -3 9 -9 -1 -26 -6 -11 -12 -27 -12 -35 0
-8 -20 -54 -44 -103 -54 -109 -72 -197 -62 -320 5 -73 3 -98 -15 -156 -16 -52
-19 -74 -11 -91 5 -11 18 -47 27 -79 10 -32 28 -69 42 -83 13 -13 35 -47 49
-76 14 -29 28 -59 32 -67 16 -29 27 -13 35 49 5 39 22 94 43 140 39 82 63 178
65 255 0 34 3 44 8 31 5 -14 13 17 25 94 10 63 22 122 27 132 13 24 39 23 94
-3 30 -14 51 -18 67 -13 27 9 59 6 73 -7 5 -5 16 -9 25 -9 11 0 19 -14 26 -42
11 -50 29 -59 39 -21 5 20 9 24 14 13 3 -8 19 -15 36 -15 17 -1 42 -4 58 -8
23 -6 27 -4 27 12 0 33 22 36 45 8 17 -22 23 -25 33 -15 9 9 15 9 20 2 4 -5
18 -11 31 -11 38 -3 52 -25 60 -92 9 -79 25 -95 80 -86 50 8 78 36 87 83 l7
34 34 -37 c40 -43 52 -38 60 24 4 31 10 41 24 41 14 0 19 8 20 28 0 26 0 27
10 4 l9 -23 24 26 24 26 16 -23 c9 -12 16 -28 16 -34 0 -7 6 -14 14 -17 7 -3
19 -26 27 -51 7 -25 16 -46 20 -46 3 0 10 -31 13 -70 4 -38 11 -70 15 -70 4 0
16 17 26 38 l19 37 4 -33 c3 -28 6 -31 18 -21 9 7 14 8 14 1 0 -6 -4 -13 -8
-16 -5 -3 -14 -37 -21 -76 -7 -38 -16 -70 -21 -70 -4 0 -15 -16 -24 -35 -13
-27 -17 -70 -19 -187 -1 -84 -6 -162 -11 -172 -7 -14 -6 -17 2 -12 7 4 19 23
27 42 8 19 21 37 30 40 27 11 73 138 54 150 -5 3 -9 19 -9 35 0 18 4 28 10 24
6 -4 10 5 10 19 0 14 5 26 10 26 6 0 10 -11 10 -25 0 -14 5 -25 10 -25 10 0
14 18 10 58 -1 13 4 30 11 38 10 12 10 15 -2 12 -10 -2 -13 5 -11 22 1 13 6
27 10 30 4 3 9 14 10 25 6 34 20 40 28 10 4 -17 2 -30 -6 -35 -6 -4 -10 -18
-8 -30 5 -37 78 172 96 274 13 81 13 95 -2 170 -19 87 -41 151 -92 262 -32 69
-65 110 -136 166 -33 26 -45 44 -68 104 -13 36 -77 81 -155 109 -52 19 -85 41
-85 58 0 18 -31 46 -45 41 -7 -3 -15 5 -19 20 -5 22 -12 26 -44 25 -20 0 -44
-3 -52 -6z m532 -1141 c-7 -2 -12 -16 -12 -32 0 -15 -7 -45 -16 -66 -14 -34
-17 -36 -26 -20 -8 14 -7 21 6 28 9 5 16 20 16 33 0 34 21 76 33 68 8 -5 7 -8
-1 -11z m-59 -284 c4 -10 8 -9 16 2 5 8 13 11 18 7 4 -5 1 -12 -6 -16 -7 -5
-11 -13 -7 -19 8 -14 -8 -24 -28 -16 -9 3 -16 17 -16 30 0 25 15 33 23 12z"/>
<path d="M948 1575 c-48 -32 -50 -51 -5 -39 42 11 158 7 171 -6 6 -6 14 -6 23
2 10 8 20 8 39 0 23 -11 24 -10 14 8 -11 20 -80 44 -160 55 -38 5 -51 2 -82
-20z"/>
<path d="M1175 1500 c3 -5 10 -10 16 -10 5 0 9 5 9 10 0 6 -7 10 -16 10 -8 0
-12 -4 -9 -10z"/>
<path d="M425 1460 c-9 -15 6 -170 16 -170 5 0 9 22 9 49 0 41 5 54 30 81 16
18 27 36 24 41 -7 12 -71 11 -79 -1z"/>
<path d="M945 1431 c-22 -12 -48 -34 -57 -51 l-17 -29 57 1 c31 0 86 -6 122
-14 63 -15 85 -9 61 15 -19 19 -12 28 17 25 31 -3 55 -29 46 -51 -3 -9 3 -20
15 -26 30 -16 34 -14 26 16 -5 23 -4 25 9 14 20 -17 20 -12 0 28 -26 51 -84
82 -168 88 -58 4 -78 1 -111 -16z"/>
<path d="M1720 1429 c13 -6 27 -14 30 -19 10 -15 70 -24 70 -11 0 16 -62 41
-97 40 l-28 0 25 -10z"/>
<path d="M2152 1304 c1 -29 -3 -49 -10 -52 -19 -6 -14 -22 8 -22 18 0 20 7 20
54 0 30 -5 58 -10 61 -6 4 -10 -11 -8 -41z"/>
<path d="M533 1313 c-49 -6 -59 -25 -39 -78 23 -58 53 -95 78 -95 20 0 20 1 5
18 -18 19 -35 104 -21 101 5 -1 12 0 17 1 4 1 12 3 17 4 11 1 12 13 4 39 -3 9
-11 16 -17 15 -7 0 -26 -3 -44 -5z"/>
<path d="M1598 1304 c-16 -8 -28 -19 -28 -24 0 -5 -7 -16 -16 -24 -18 -19 -22
-17 89 -40 94 -19 98 -20 91 -3 -3 8 2 20 10 27 13 10 17 9 22 -5 4 -9 1 -20
-6 -25 -9 -6 -9 -9 0 -15 6 -4 14 -4 17 -1 3 3 17 -4 31 -14 31 -25 40 -19 20
12 -8 13 -18 32 -21 43 -6 17 -4 17 13 -4 11 -13 20 -19 20 -14 0 15 -63 69
-102 86 -44 21 -104 21 -140 1z m-1 -56 c-3 -8 -6 -5 -6 6 -1 11 2 17 5 13 3
-3 4 -12 1 -19z m131 0 c-6 -18 -25 -20 -31 -3 -5 10 0 15 14 15 12 0 19 -5
17 -12z"/>
<path d="M1190 1250 c0 -5 7 -10 15 -10 8 0 15 5 15 10 0 6 -7 10 -15 10 -8 0
-15 -4 -15 -10z"/>
<path d="M610 1101 c0 -5 7 -11 15 -15 9 -3 15 0 15 9 0 8 -7 15 -15 15 -8 0
-15 -4 -15 -9z"/>
<path d="M652 955 c0 -16 2 -22 5 -12 2 9 2 23 0 30 -3 6 -5 -1 -5 -18z"/>
<path d="M1224 971 c3 -5 17 -11 30 -13 17 -4 23 -1 19 9 -3 7 -16 13 -30 13
-13 0 -22 -4 -19 -9z"/>
<path d="M985 788 c77 -65 105 -68 111 -15 2 22 -3 25 -61 35 -90 17 -94 16
-50 -20z"/>
<path d="M1126 785 c4 -9 11 -14 16 -13 15 5 11 23 -6 26 -11 2 -14 -2 -10
-13z"/>
<path d="M1190 780 c0 -6 7 -10 15 -10 8 0 15 2 15 4 0 2 -7 6 -15 10 -8 3
-15 1 -15 -4z"/>
<path d="M1663 715 c0 -27 2 -38 4 -22 2 15 2 37 0 50 -2 12 -4 0 -4 -28z"/>
<path d="M1477 688 c-27 -26 -27 -28 -7 -28 11 0 34 7 50 15 19 10 40 13 57 9
43 -10 22 4 -28 19 -43 13 -45 13 -72 -15z"/>
</g>
</svg>
